<svg id="Layer_1" data-name="Layer 1" xmlns="http://www.w3.org/2000/svg" viewBox="0 0 380.61 306.31"><defs><style>.cls-1{fill:#4284f3;}.cls-2{fill:#fabb05;}.cls-3{fill:#e94335;}.cls-4{fill:#34a753;}</style></defs><title>google-cloud-logo</title><path class="cls-1" d="M414.67,283.3a127.83,127.83,0,0,1,19.07,20.25,146.07,146.07,0,0,1,25.43,50.35,5.15,5.15,0,0,0,2.11,2.89c23.81,17.48,38.74,40.69,43.44,69.85,5.23,32.44-2.85,61.65-24,86.91C464.43,533,443.49,545,418.55,549.93a89.87,89.87,0,0,1-17.23,1.78q-42.07.07-84.14,0c-.41,0-.82,0-1.24-.07a3.53,3.53,0,0,1-.66-2.72q0-30.36,0-60.7a6.8,6.8,0,0,1,.25-2.24c.36-.84,1.13-.92,1.89-1s1.66,0,2.48,0c26,0,52.09.08,78.13,0,19.13-.09,33.26-11.67,38.69-26.61,5.29-14.56,2.9-28.12-6.87-40.16-7.43-9.15-17.34-13.75-29-14.74-2.51-.21-2.78-.47-2.75-3.07a103.22,103.22,0,0,0-2-23.2,81.79,81.79,0,0,0-18-36.06c-3.23-3.81-7-7-10.51-10.49-.33-1.31.8-1.81,1.47-2.49q19.69-19.75,39.45-39.47c1.41-1.42,2.81-2.84,4.24-4.24C413.33,283.92,413.78,283.24,414.67,283.3Z" transform="translate(-125.66 -245.49)"/><path class="cls-2" d="M168.4,529.82a98.34,98.34,0,0,1-22-22.21c-15-20.7-22.14-43.93-20.54-69.42,2.12-33.86,17.28-60.9,44.42-81.24.72-.53,1.42-1.09,2.12-1.64a6.13,6.13,0,0,1,2.1-1.95,107.59,107.59,0,0,1,45.22-16.5,125.39,125.39,0,0,1,20.21-.67,92,92,0,0,1,14.93,2,108.32,108.32,0,0,1,63.06,38.91c1.54,2,1.53,2.49-.19,4.21Q295.4,403.69,273,426c-1.88,1.87-2.35,1.76-3.61-.53-6.93-12.55-17.39-20-31.7-21.75-11.65-1.4-21.95,1.94-30.86,9.48a38.33,38.33,0,0,0-14,26.71c-1.6,18.14,6.27,31.32,21.66,40.41a5,5,0,0,1,1.84,1.3c.3,1-.49,1.51-1,2.07q-22.48,22.53-45,45C169.76,529.25,169.3,529.94,168.4,529.82Z" transform="translate(-125.66 -245.49)"/><path class="cls-3" d="M255.18,338.72c-4.21-.54-8.39-1.29-12.62-1.71a98.26,98.26,0,0,0-16.89-.18,106.52,106.52,0,0,0-24.39,4.6,107.61,107.61,0,0,0-26.57,12.51c-.74.48-1.52.91-2.29,1.37a113.38,113.38,0,0,1,8.82-24.15c21.76-43.93,56.36-72.27,104.4-82.25s91.19,2,128.66,33.9a3,3,0,0,1,.37.49l-46.84,46.87c-1,.32-1.55-.43-2.17-.9a81,81,0,0,0-55.75-16.56,82.63,82.63,0,0,0-26.74,6.57,81.74,81.74,0,0,0-24.23,16.26C257.75,336.68,256.77,338.06,255.18,338.72Z" transform="translate(-125.66 -245.49)"/><path class="cls-4" d="M168.4,529.82q23.15-23.15,46.28-46.3c.54-.53,1-1.1,1.55-1.65.9-.62,1.74-.12,2.54.2A42.82,42.82,0,0,0,235,484.88c25.75.05,51.49,0,77.24,0,1.27,0,2.65-.33,3.75.67v66.07c-3.58,0-7.16.07-10.74.07-24.6,0-49.21.19-73.8-.05-23-.24-43.74-7.56-62.26-21.17A6.87,6.87,0,0,1,168.4,529.82Z" transform="translate(-125.66 -245.49)"/></svg>