<svg xmlns="http://www.w3.org/2000/svg" viewBox="0 0 400 400"><defs><style>.cls-1{fill:#00457b;}</style></defs><g id="Layer_2" data-name="Layer 2"><g id="Layer_1-2" data-name="Layer 1"><path class="cls-1" d="M176,400c-9.62-1.87-19.35-3.11-28.83-5.77a236.42,236.42,0,0,1-25.08-8.38c-4.89-2-5-3.41-1.27-7q34.32-32.37,68.61-64.77,46.69-44,93.42-88,33.21-31.35,66.29-62.85c11.12-10.53,22.35-20.93,33.39-31.55,2.92-2.81,4.37-2.8,5.79,1.23,6.26,17.86,10.29,36.14,11,55.11A45.47,45.47,0,0,0,400,193v14c-.56,5.61-1,11.24-1.7,16.84q-9.1,73.89-63.83,124.38a197.09,197.09,0,0,1-88,47.15C238.7,397.28,230.73,398,223,400Z"/><path class="cls-1" d="M221,0c9.44,1.93,19,3.17,28.36,5.58C290.21,16.09,324,37.89,351.58,69.38a171.16,171.16,0,0,1,22.78,32.76c2.54,4.79,2,5.83-3.41,5.86-15.83.06-31.66,0-47.48,0q-146.7,0-293.39,0c-2.55,0-6.08,1.29-7.44-1.28s1.42-5.13,2.8-7.52A198.67,198.67,0,0,1,89.92,31.42,195.46,195.46,0,0,1,173.63.79,30.48,30.48,0,0,0,177,0Z"/><path class="cls-1" d="M0,170c1.57-6.8,3.29-13.57,4.63-20.42.74-3.78,2.71-5.31,6.44-5.49q20.43-1,40.86-2.23c24.74-1.53,49.47-3.2,74.21-4.72,13.79-.85,27.59-1.46,41.37-2.29,24.91-1.51,49.82-3.13,74.72-4.66,18.27-1.13,36.55-2.18,54.82-3.26l61.78-3.66c.93-.06,2-.59,2.73.57-.64,1.74-2.28,1.75-3.68,2-20.11,3.83-40.24,7.56-60.34,11.44q-56.61,10.94-113.21,22-72.56,14.07-145.12,28.08Q19.61,191.17,0,195Z"/><path class="cls-1" d="M365.8,127.52c-3.41,1.72-6.4,3.31-9.47,4.76q-46.05,21.84-92.11,43.63Q194.9,208.72,125.59,241.5,75.93,265,26.36,288.75c-5.85,2.79-6.34,2.76-9-3A210.81,210.81,0,0,1,4.19,249.15c-1-3.8-.23-5.63,3.81-6.92q52.58-16.81,105-34,66.5-21.68,133-43.43l97.84-31.9c5.7-1.86,11.36-3.8,17.08-5.59C362.21,126.89,363.62,125.94,365.8,127.52Z"/><path class="cls-1" d="M368.51,130.73c-5,4-10,8-15,12q-32,25.13-64.12,50.2Q248.19,225,206.92,257,158.07,295,109.3,333.23C99.73,340.71,90,348,80.52,355.61c-3.14,2.52-5.52,2.82-8.69.12a265.73,265.73,0,0,1-26.29-25.91c-2.19-2.47-1.85-4,1.1-5.75q78.87-47.71,157.62-95.61,62.13-37.71,124.28-75.38,17.71-10.76,35.41-21.55c1.22-.74,2.53-1.33,3.79-2Z"/></g></g></svg>