<svg xmlns="http://www.w3.org/2000/svg" viewBox="0 0 129.19 129.24"><defs><style>.cls-1{fill:#2867b1;}.cls-2{fill:#fefefe;}</style></defs><title>Asset 5</title><g id="Layer_2" data-name="Layer 2"><g id="Layer_1-2" data-name="Layer 1"><path class="cls-1" d="M8.06,0h.48A2.57,2.57,0,0,0,9.83.11H119.08a2.6,2.6,0,0,0,1.3-.11h.24a1,1,0,0,0,.45.12,8.75,8.75,0,0,1,8.05,9q0,22.56,0,45.1c0,21.48-.1,43,.05,64.42a10.35,10.35,0,0,1-10.55,10.57q-54.28,0-108.56,0a10.25,10.25,0,0,1-8.86-4.4C.15,123.34.13,121.64,0,120V9.06A8.29,8.29,0,0,1,4.1,1C5.34.25,6.75.37,8.06,0Z"/><path class="cls-2" d="M68.72,56.64a20.42,20.42,0,0,1,3.39-4.29,19.93,19.93,0,0,1,14.35-5.6,30.49,30.49,0,0,1,10.26,1.53c6.83,2.48,10.13,7.8,11.65,14.54a60.81,60.81,0,0,1,1.2,13.46c0,10.63,0,21.27,0,31.91,0,1.07-.28,1.33-1.33,1.31-5.52,0-11,0-16.56,0-.91,0-1.12-.25-1.12-1.13q0-15.3,0-30.6A30.94,30.94,0,0,0,89.91,71c-1.12-4.94-3.77-7.2-8.82-7.53-5.76-.37-9.7,2.47-11.13,8a25.59,25.59,0,0,0-.74,6.41c0,10.08,0,20.15,0,30.23,0,1.14-.34,1.37-1.4,1.36-5.52,0-11,0-16.56,0-.91,0-1.13-.26-1.13-1.14q0-29.46,0-58.91c0-1,.31-1.2,1.23-1.19q7.92.06,15.84,0c.94,0,1.23.26,1.21,1.21-.06,2.34,0,4.69,0,7Z"/><path class="cls-2" d="M19.14,78.89c0-9.76,0-19.51,0-29.27,0-1.14.34-1.37,1.41-1.36,5.44.05,10.87,0,16.31,0,1,0,1.38.18,1.37,1.29q0,29.34,0,58.67c0,1-.19,1.3-1.23,1.29q-8.34-.09-16.68,0c-1,0-1.17-.31-1.17-1.22C19.15,98.49,19.14,88.69,19.14,78.89Z"/><path class="cls-2" d="M28.72,39.84a11,11,0,1,1,11-11.12A11.09,11.09,0,0,1,28.72,39.84Z"/></g></g></svg>