<svg id="Layer_1" data-name="Layer 1" xmlns="http://www.w3.org/2000/svg" viewBox="0 0 258.12 257.17"><defs><style>.cls-1{fill:#ed2a24;}</style></defs><title>logo-red-en</title><path class="cls-1" d="M436.74,243c-17.9,17.83-34.9,34.71-51.81,51.66-1.71,1.73-3.62,1.32-5.53,1.32-24.82,0-49.65.45-74.46-.13-17.31-.4-31.93,5.89-45.09,16a76.75,76.75,0,0,0-27,38.66,60.27,60.27,0,0,0-2.74,21.68,34.42,34.42,0,0,1-7.85-15.93c-5.42-23.37-5.4-46.35,6.73-68.06a91.59,91.59,0,0,1,33.55-34.39c12.8-7.68,26.48-11,41.44-10.91,42.14.29,84.28.1,126.42.1Z" transform="translate(-178.62 -242.89)"/><path class="cls-1" d="M383.26,371.07c6,8.22,8.05,17.28,9.76,26.49,1.22,6.56.91,13.17,1,19.77.22,19.82-7.13,36.7-19.57,51.81s-28,24.55-46.62,29.4a43.55,43.55,0,0,1-11.16,1.52q-69-.13-138-.06c-.44-1.78,1.14-2.28,2-3.1,15.39-15.47,30.86-30.85,46.21-46.36a8.29,8.29,0,0,1,6.53-2.59c25.82.08,51.64,0,77.45.06,17.38,0,31.92-7.11,44.69-18.15C369,418.21,378,403.7,381.44,386,382.36,381.3,382.63,376.44,383.26,371.07Z" transform="translate(-178.62 -242.89)"/><path class="cls-1" d="M306.42,370c-8.32,0-16.63-.05-24.95,0-2.3,0-3.8-.19-3.51-3.14a159.69,159.69,0,0,1,5.09-25.74c.46-1.74,1.83-1.11,2.82-1.12,13.81,0,27.61,0,41.41-.06,1.72,0,2.35.41,2.93,2.27,2.44,7.8,3.61,15.81,4.79,23.83.42,2.83-.31,4.12-3.64,4C323.05,369.82,314.73,370,306.42,370Z" transform="translate(-178.62 -242.89)"/><path class="cls-1" d="M306.44,375c8.31,0,16.63.1,24.94-.06,2.7-.05,4,.56,3.65,3.52a151.54,151.54,0,0,1-4.91,24.78c-.55,2-1.59,1.75-2.85,1.75q-20.44,0-40.9,0c-1.9,0-2.81-.68-3.46-2.66-2.55-7.76-3.3-15.85-4.89-23.79-.56-2.77.61-3.69,3.48-3.62C289.81,375.12,298.12,375,306.44,375Z" transform="translate(-178.62 -242.89)"/><path class="cls-1" d="M358.45,375c5.5,0,11,.1,16.49-.05,2.35-.06,3.34.62,3.08,3.07a67.71,67.71,0,0,1-7.94,25.88c-.82,1.48-1.9,1.07-2.93,1.07-9.66,0-19.32-.07-29,.09-3.21.05-3.73-1.14-2.83-3.84A63.94,63.94,0,0,0,339,378.63c-.1-2.72.57-3.82,3.52-3.7C347.79,375.17,353.12,375,358.45,375Z" transform="translate(-178.62 -242.89)"/><path class="cls-1" d="M233.65,375c12.73,0,24.51,0,36.29,0,1.83,0,3.1,0,3.11,2.54a74.73,74.73,0,0,0,4.45,24.33c.93,2.65.21,3.19-2.25,3.17-9.81,0-19.61-.06-29.41,0a4,4,0,0,1-4.15-2.61,64,64,0,0,1-6.63-22.68A15.43,15.43,0,0,0,233.65,375Z" transform="translate(-178.62 -242.89)"/><path class="cls-1" d="M334.87,340c11.33,0,22,0,32.6,0,1.61,0,2.76.34,3.55,2,3.78,7.81,6.81,15.78,7,24.62.06,2.45-.43,3.52-3.22,3.47-10.64-.16-21.29-.1-31.94,0-2.06,0-2.88-.45-2.94-2.74A91.85,91.85,0,0,0,334.87,340Z" transform="translate(-178.62 -242.89)"/><path class="cls-1" d="M253.64,370c-5.16,0-10.32-.16-15.47.06-2.79.12-3.51-1-3.17-3.46a88.14,88.14,0,0,1,6.82-24.22,3.52,3.52,0,0,1,3.76-2.4c9.82,0,19.64.06,29.46,0,2.7,0,3.39.44,2.32,3.42-2.77,7.68-4.75,15.61-4.33,23.89.12,2.3-.86,2.79-2.91,2.75C264.63,369.93,259.13,370,253.64,370Z" transform="translate(-178.62 -242.89)"/><path class="cls-1" d="M305.74,442.6c-20.7.09-43.55-8-59.67-32.66.79-1.66,2.32-.89,3.48-.9,9-.07,18,0,26.95-.08,2.62,0,4.18.29,5.38,3.26C286.74,424.26,295.14,433.73,305.74,442.6Z" transform="translate(-178.62 -242.89)"/><path class="cls-1" d="M305.28,301.13c-7.13,7.48-14.58,13.58-19.09,22.16-.9,1.72-2.48,3.27-2.81,5.07-1.05,5.62-4.77,5.84-9.36,5.72-9.11-.26-18.23-.08-27.43-.08C255.57,316.15,283.17,300.5,305.28,301.13Z" transform="translate(-178.62 -242.89)"/><path class="cls-1" d="M366,410c-13.62,20.84-32.14,31.9-56.61,32.92-.57-2.5,1.54-3.26,2.71-4.38,7.91-7.51,14.64-15.85,19.07-25.92.61-1.41,1.24-2.73,3.47-2.7C344.85,410.1,355.11,410,366,410Z" transform="translate(-178.62 -242.89)"/><path class="cls-1" d="M365.66,334c-10.05,0-19.53-.17-29,.1-3.09.09-4.38-1.29-5.61-3.64-5.29-10.17-11.22-19.86-20.75-26.75-.62-.45-1.56-1.06-1.06-2,.68-1.31,2.09-.79,3.09-.66,9.5,1.27,18.82,3.14,27.35,7.87,10.08,5.6,18.09,13.45,25.05,22.48A10.52,10.52,0,0,1,365.66,334Z" transform="translate(-178.62 -242.89)"/><path class="cls-1" d="M285.78,409c13.29,0,26,0,38.61,0,2.64,0,3.27.77,1.95,3.24a86.6,86.6,0,0,1-18,23.76c-3.1,2.81-5.1-1.52-6.16-2.68C295.78,426.24,289.61,418.85,285.78,409Z" transform="translate(-178.62 -242.89)"/><path class="cls-1" d="M327.22,333.79h-41c4.32-10.12,11.3-18,18.86-25.49a2.31,2.31,0,0,1,3.68.16C315.67,316.18,322.85,323.71,327.22,333.79Z" transform="translate(-178.62 -242.89)"/></svg>