<svg xmlns="http://www.w3.org/2000/svg" viewBox="0 0 498.19 119.7"><path d="M20.85,35.85q-4.8,10.4-4.8,18.6,0,16.9,11.6,20.7a27,27,0,0,0,7,.9,29.37,29.37,0,0,0,7.15-.9,42.86,42.86,0,0,0,12.9-5.7q5.7-3.8,7.2-7.3,4-9.3,8.6-9.3c1.53,0,2.57.87,3.1,2.6a4,4,0,0,1,.2,2.2,57.39,57.39,0,0,1-4.3,15.45,147.24,147.24,0,0,1-9.3,17.55,92.61,92.61,0,0,1,21.9,2.6c1.4.33,2.1.8,2.1,1.4s-1,.87-2.9.4q-6.9-1.8-19.9-1.8h-2.6A59.5,59.5,0,0,1,42.5,108.8a66.17,66.17,0,0,1-19.75,9.25,36.37,36.37,0,0,1-9,1.4,18.46,18.46,0,0,1-6.2-.9q-7.3-2.7-7.3-7.1a6.6,6.6,0,0,1,.7-2.8q2.7-6,14.2-11.1a68.68,68.68,0,0,1,18.35-5.3,171.67,171.67,0,0,1,21.65-1.6,84.68,84.68,0,0,0,10.1-24.6l.4-1.7A58.19,58.19,0,0,1,54.8,72.5a51.91,51.91,0,0,1-10.55,5,40.85,40.85,0,0,1-11.85,2.3,23.27,23.27,0,0,1-8.15-1.3,19.51,19.51,0,0,1-10.4-8.8A31.25,31.25,0,0,1,9.55,53q0-9.71,5.1-20.8-6.6-6.79-6.6-14.45t6.2-14.55C15.05,2.28,15.63,2,16,2.2S16.22,3,15.55,4q-4.5,6-4.5,12.1a19.83,19.83,0,0,0,5.2,13.1,40.18,40.18,0,0,1,2.2-3.9,51.83,51.83,0,0,1,21.2-19.6Q50.15.25,60,.25a36.35,36.35,0,0,1,5.4.4q12.9,2,17.4,10.6a15.49,15.49,0,0,1,1.8,7.35,17.49,17.49,0,0,1-2.5,8.45q-5.6,9.71-19.6,13.6a55,55,0,0,1-15.1,2.1Q31.15,42.75,20.85,35.85Zm-15.5,76.3c0,1.87,1.6,3.13,4.8,3.8a14.75,14.75,0,0,0,3.5.4q7.09,0,18-5.1a52.85,52.85,0,0,0,21.9-17.9A138.63,138.63,0,0,0,35.15,95a54.88,54.88,0,0,0-21.7,8.3Q5.35,108.44,5.35,112.15ZM62.25,3.35q-8.59,0-18.2,5.8a56.55,56.55,0,0,0-21.9,24.1A28.83,28.83,0,0,0,33,38.35a43.89,43.89,0,0,0,9.85,1.5q21.1,0,31.9-11.3,5.4-5.81,5.4-11.6,0-9.19-10.3-12.4A25.12,25.12,0,0,0,62.25,3.35Z" stroke="#000" stroke-miterlimit="10" stroke-width="0.5"/><path d="M98.75,47.05q7.29,0,7.3,9.2a21.8,21.8,0,0,1-2.2,9,35.69,35.69,0,0,1-8.4,11.8q1.29,2.51,4.7,2.5a6.86,6.86,0,0,0,5.1-2.7,27.54,27.54,0,0,0,4.3-5.45l1.9-3.45c.4-.73.91-1.78,1.55-3.15l1.15-2.5a.7.7,0,0,1,.7-.45c.66-.07,1,.17,1,.7a1.67,1.67,0,0,1-.2.7l-.6,1.4c-.4.93-.7,1.6-.9,2L113.1,68.8c-.5,1-.94,1.85-1.3,2.45l-1.5,2.4a24.41,24.41,0,0,1-1.7,2.4c-.5.6-1.12,1.27-1.85,2a11.78,11.78,0,0,1-2.1,1.7,9.24,9.24,0,0,1-4.7,1.5,8.1,8.1,0,0,1-6.4-2.6q-4.6,3.41-8.5,3.4-7.3,0-7.3-9.2a21.64,21.64,0,0,1,2.2-9A33.46,33.46,0,0,1,88.4,52Q93.85,47,98.75,47.05Zm1.1,3.1c-1.8,0-3.94,1.2-6.4,3.6a33,33,0,0,0-6.6,9.8q-3.51,7.2-3.5,11.8c0,3.07,1.16,4.6,3.5,4.6q2.49,0,5.6-2.7a8.41,8.41,0,0,1-1.6-4.9q.2-4.3,3.5-4.3a2.85,2.85,0,0,1,2.15.9,2.58,2.58,0,0,1,.85,1.65,6.53,6.53,0,0,1-.2,1.55,57.28,57.28,0,0,0,3.9-7.1,22.69,22.69,0,0,0,2.5-10C103.55,51.78,102.31,50.15,99.85,50.15Z" stroke="#000" stroke-miterlimit="10" stroke-width="0.5"/><path d="M135.15,76.25c0,2.13.86,3.2,2.6,3.2q4.69,0,12.5-15.7c.2-.4.38-.8.55-1.2a1.32,1.32,0,0,1,.8-.8c.36-.13.61,0,.75.25a2.1,2.1,0,0,1-.2,1.45q-8,18.6-16.2,18.6a4.93,4.93,0,0,1-4.3-2.4,8.5,8.5,0,0,1-1.6-4.75,17.55,17.55,0,0,1,.5-4.35q-5.81,9.6-10,10.9a6.17,6.17,0,0,1-2.35.5,8.48,8.48,0,0,1-2.25-.3q-4.9-1.31-4.9-7.8a25.45,25.45,0,0,1,2.25-9.75,40.18,40.18,0,0,1,6.35-10.25,20,20,0,0,1,9.9-6.6,15.6,15.6,0,0,1,4.95-.7,14.13,14.13,0,0,1,6.35,1.8q6.79-12.8,11.6-23.7,1.4-3.3,2.75-4.25a4.46,4.46,0,0,1,2.5-.95h1.4c.16,0,.8.08,1.9.25a10.15,10.15,0,0,0,2.55.15q-2.31,2.1-12.2,20.4-12.6,23.4-15.2,31.2A15.25,15.25,0,0,0,135.15,76.25Zm4.9-26.3a4.94,4.94,0,0,0-3.65-1.3q-2.35,0-6.55,3.5A46.06,46.06,0,0,0,118.75,66c-1.94,3.6-2.9,6.57-2.9,8.9a6.31,6.31,0,0,0,.65,2.9,2.14,2.14,0,0,0,2,1.3q3.39,0,8.4-7A220.08,220.08,0,0,0,140.05,50Z" stroke="#000" stroke-miterlimit="10" stroke-width="0.5"/><path d="M139,116.85q-5.5,0-5.5-5.5,0-7.91,10.3-32.2a6.87,6.87,0,0,1-1.2-3.3q0-4.2,1.9-5.6a4,4,0,0,1,2.35-1.2,4.74,4.74,0,0,1,1.25.1q11.4-25.7,20.5-42.7a17.67,17.67,0,0,1,3.7-5.3,6.92,6.92,0,0,1,4.8-1.7,15.91,15.91,0,0,1,2,.3,8.36,8.36,0,0,0,2.4.2q-4.71,4.39-13.2,19.4t-16.1,32.1a16.59,16.59,0,0,1,3.2,7.5l.3,1.3h.3q2.7,0,5.7-3.15a33.5,33.5,0,0,0,4.9-6.5c1.26-2.23,2.3-4.2,3.1-5.9a12.28,12.28,0,0,1,1.5-2.75.76.76,0,0,1,.55-.15,1.13,1.13,0,0,1,.45.2.6.6,0,0,1,.2.5,1.76,1.76,0,0,1-.2.75q-8.31,18.9-16.3,18.9c.06,1.07.1,2.82.1,5.25a49.3,49.3,0,0,1-1.8,10.85,36,36,0,0,1-6.05,12.9Q143.84,116.85,139,116.85Zm-.1-5.5c0,1.93.53,2.9,1.6,2.9q1.89,0,5.25-4.45a39.46,39.46,0,0,0,5.7-12.2,49.13,49.13,0,0,0,2.35-14v-1h-.9A7.56,7.56,0,0,1,148,81Q138.85,103.95,138.85,111.35ZM153,80.65h.6a12,12,0,0,0-2.4-6.9l-2.2,5C149.61,80,151,80.65,153,80.65Z" stroke="#000" stroke-miterlimit="10" stroke-width="0.5"/><path d="M184.05,42q0,4.5-5.7,8.5c1.33.07,3.11.1,5.35.1s5.05-.17,8.45-.5a3.76,3.76,0,0,1,.2,1.6,10.21,10.21,0,0,1-1.2,3.85Q190,58.05,189,59.9c-.64,1.23-1.24,2.4-1.8,3.5s-1.2,2.45-1.9,4.05-1.29,3.07-1.75,4.4q-2.51,7.61.8,7.6,4.2,0,12.4-16.7c.46-.87.85-1.2,1.15-1a.88.88,0,0,1,.45.75,14.45,14.45,0,0,1-1.3,3.1c-.87,1.77-1.8,3.58-2.8,5.45a37.69,37.69,0,0,1-4.7,6.5q-3.81,4.61-7.3,4.6-3.9,0-5.4-4.7a9.1,9.1,0,0,1-.3-2.7A14.24,14.24,0,0,1,177.7,70a51.72,51.72,0,0,1,3.65-7.3c1.66-2.87,2.6-4.55,2.8-5a3.88,3.88,0,0,0,.3-1.45q0-3.1-8-3.3l-1.2,3.2q-6.3,16.5-12.1,22.1c-.67.6-1,.4-1-.6a1.54,1.54,0,0,1,.2-.7,77,77,0,0,0,9.7-17.5,95.37,95.37,0,0,0,5.7-19.2c.4-2.07,1.33-3.1,2.8-3.1s2.53.93,3.2,2.8A6.65,6.65,0,0,1,184.05,42Z" stroke="#000" stroke-miterlimit="10" stroke-width="0.5"/><path d="M201,66.65a19.68,19.68,0,0,0-1.4,7.6,7.15,7.15,0,0,0,1.25,4.45,4.18,4.18,0,0,0,3.55,1.65q9.09,0,16.5-17.1c.46-1.07,1-1.53,1.7-1.4a.48.48,0,0,1,.4.5,41.52,41.52,0,0,1-2.25,5.25,42.49,42.49,0,0,1-4.55,7.85q-5.1,7-12.6,7a9.63,9.63,0,0,1-6.8-2.6,9.2,9.2,0,0,1-2.8-7.1,24.32,24.32,0,0,1,2.15-9.55A36.33,36.33,0,0,1,202,53.8a22.37,22.37,0,0,1,8.5-6.35,11,11,0,0,1,4.4-1,6.89,6.89,0,0,1,3.9,1.2,4,4,0,0,1,1.7,3.1q0,6-7.2,11.5a21.65,21.65,0,0,1-6.2,3A21,21,0,0,1,201,66.65Zm16.8-16c0-1.33-.54-2-1.6-2q-2.81,0-8.5,6.9a51,51,0,0,0-6,9.4,15.84,15.84,0,0,0,4.95-1.2,19.19,19.19,0,0,0,5.65-3.2Q217.74,55.86,217.75,50.65Z" stroke="#000" stroke-miterlimit="10" stroke-width="0.5"/><path d="M207.35,113.65a10.94,10.94,0,0,1-6.8-1.85,5.48,5.48,0,0,1-2.4-4.45,14.53,14.53,0,0,1,1.5-5.9q2.59-5.1,9.4-8.2a73.58,73.58,0,0,1,13.5-4.45q8.4-2.05,10.8-2.75,3.6-6.3,8.6-22.5-5.8,10.2-9.7,14.3c-2.6,2.73-5.24,4.1-7.9,4.1q-5.4,0-6.3-4.5a3.3,3.3,0,0,1-.2-2.1c.13-.93.21-1.6.25-2a7,7,0,0,1,.65-1.95c.4-.9.66-1.55.8-2a38.87,38.87,0,0,1,1.9-3.6c-1.07,0-1.37-.53-.9-1.6l1.8-3.5q3.39-6.49,5.6-11,1-2.1,3.9-2.1H238c-.14.13-.47.4-1,.8a8.24,8.24,0,0,0-2.7,2.8q-3.6,6.2-9,17.7-2.2,4.69-2.2,6.9a4.9,4.9,0,0,0,.75,3.1,2.52,2.52,0,0,0,2,.9q1.89,0,5.3-4,7.09-8.3,15.7-26.1a4,4,0,0,1,3.9-2.1h5.4a13.05,13.05,0,0,0-4.1,4.55,58.29,58.29,0,0,0-3.25,7.45q-1.76,4.7-4.4,12.5t-4.05,11.7a26.1,26.1,0,0,0,14.4-9.9,107.22,107.22,0,0,0,6.3-11c.46-.93.88-1.3,1.25-1.1a.91.91,0,0,1,.55.8,18.94,18.94,0,0,1-1.65,3.85q-1.65,3.34-3.35,6.2a38.21,38.21,0,0,1-4.4,5.85,21.87,21.87,0,0,1-6,4.75,71,71,0,0,1-8.8,3.75q-7.71,14-15.5,20.6A24.42,24.42,0,0,1,207.35,113.65Zm-5.8-9.9a9.05,9.05,0,0,0-1.1,4,3.28,3.28,0,0,0,1.4,2.85,5.84,5.84,0,0,0,3.5,1q5.79,0,12.4-6A85.52,85.52,0,0,0,229.35,93l2.2-3.7q-16.5,4.31-20.8,6.2A17.88,17.88,0,0,0,201.55,103.75Z" stroke="#000" stroke-miterlimit="10" stroke-width="0.5"/><path d="M319.14,92.15a37.79,37.79,0,0,1-14.95-3.05,26.62,26.62,0,0,1-11.4-8.95,27.86,27.86,0,0,1-5.15-12.9,51.32,51.32,0,0,1-.4-6.6,66.06,66.06,0,0,1,.9-9.5,51.21,51.21,0,0,1,3.95-12.8,56.13,56.13,0,0,1,7.25-12.2,50.65,50.65,0,0,1-1.7-12.35,41.32,41.32,0,0,1,1.3-10.55,2.06,2.06,0,0,1,.65-1.15,1.41,1.41,0,0,1,.65-.35c.67,0,.87.82.6,2.45a47.28,47.28,0,0,0-.4,7,66.39,66.39,0,0,0,1.3,11.55,48,48,0,0,1,18.8-15,43.32,43.32,0,0,1,17.4-3.6,50.67,50.67,0,0,1,5.4.3q15.41,1.69,20.8,11.8a18.48,18.48,0,0,1,2.2,8.7,23.14,23.14,0,0,1-2.1,9.3q-4.39,9.6-15.1,14.2a37.45,37.45,0,0,1-15.1,3,52.13,52.13,0,0,1-7.1-.5q-17.9-2.6-24.8-17-2.4,3.4-4.95,11.4a63.75,63.75,0,0,0-2.95,12.3c-.26,2.87-.4,5.27-.4,7.2a48.22,48.22,0,0,0,.4,6,20,20,0,0,0,4.2,10,18.2,18.2,0,0,0,9.35,6.2,36.12,36.12,0,0,0,10.15,1.75q13.9,0,23.7-5.8a31.2,31.2,0,0,0,9.25-8A76,76,0,0,0,358,62.75c.4-.87.82-1.17,1.25-.9s.42.9-.05,1.9A86.9,86.9,0,0,1,352.19,76a36.18,36.18,0,0,1-8.85,8.4A41.49,41.49,0,0,1,319.14,92.15Zm-15-61.4q7.11,18.11,29.6,18.1,12.7,0,20.35-7.1t7.65-16.1a15.75,15.75,0,0,0-7.8-14q-5.79-3.71-14.3-3.7a34.32,34.32,0,0,0-17.1,4.9A55.42,55.42,0,0,0,304.14,30.75Z" stroke="#000" stroke-miterlimit="10" stroke-width="0.5"/><path d="M376.14,47.05q7.31,0,7.3,9.2a21.64,21.64,0,0,1-2.2,9,35.54,35.54,0,0,1-8.4,11.8c.87,1.67,2.43,2.5,4.7,2.5a6.86,6.86,0,0,0,5.1-2.7,27.17,27.17,0,0,0,4.3-5.45l1.9-3.45c.4-.73.92-1.78,1.55-3.15s1-2.2,1.15-2.5a.71.71,0,0,1,.7-.45c.67-.07,1,.17,1,.7a1.67,1.67,0,0,1-.2.7l-.6,1.4c-.4.93-.7,1.6-.9,2l-1.05,2.15c-.5,1-.93,1.85-1.3,2.45s-.86,1.4-1.5,2.4a22.83,22.83,0,0,1-1.7,2.4c-.5.6-1.12,1.27-1.85,2a11.11,11.11,0,0,1-2.1,1.7,9.21,9.21,0,0,1-4.7,1.5,8.11,8.11,0,0,1-6.4-2.6q-4.6,3.41-8.5,3.4-7.29,0-7.3-9.2a21.64,21.64,0,0,1,2.2-9A33.58,33.58,0,0,1,365.79,52Q371.24,47,376.14,47.05Zm1.1,3.1q-2.7,0-6.4,3.6a33,33,0,0,0-6.6,9.8q-3.5,7.2-3.5,11.8t3.5,4.6c1.67,0,3.53-.9,5.6-2.7a8.41,8.41,0,0,1-1.6-4.9q.19-4.3,3.5-4.3a2.82,2.82,0,0,1,2.15.9,2.53,2.53,0,0,1,.85,1.65,6.53,6.53,0,0,1-.2,1.55,57.28,57.28,0,0,0,3.9-7.1,22.56,22.56,0,0,0,2.5-10Q380.94,50.15,377.24,50.15Z" stroke="#000" stroke-miterlimit="10" stroke-width="0.5"/><path d="M404.94,42q0,4.5-5.7,8.5c1.33.07,3.12.1,5.35.1s5.05-.17,8.45-.5a3.76,3.76,0,0,1,.2,1.6A10.21,10.21,0,0,1,412,55.5q-1.2,2.55-2.15,4.4l-1.8,3.5c-.57,1.1-1.2,2.45-1.9,4.05s-1.28,3.07-1.75,4.4q-2.51,7.61.8,7.6,4.2,0,12.4-16.7c.47-.87.85-1.2,1.15-1a.88.88,0,0,1,.45.75,13.87,13.87,0,0,1-1.3,3.1c-.87,1.77-1.8,3.58-2.8,5.45a37.69,37.69,0,0,1-4.7,6.5c-2.53,3.07-5,4.6-7.3,4.6q-3.9,0-5.4-4.7a9.1,9.1,0,0,1-.3-2.7,14.24,14.24,0,0,1,1.15-4.8,52.84,52.84,0,0,1,3.65-7.3q2.5-4.3,2.8-5a3.88,3.88,0,0,0,.3-1.45q0-3.1-8-3.3l-1.2,3.2q-6.3,16.5-12.1,22.1c-.66.6-1,.4-1-.6a1.67,1.67,0,0,1,.2-.7,76.58,76.58,0,0,0,9.7-17.5,95.37,95.37,0,0,0,5.7-19.2c.4-2.07,1.33-3.1,2.8-3.1s2.53.93,3.2,2.8A6.65,6.65,0,0,1,404.94,42Z" stroke="#000" stroke-miterlimit="10" stroke-width="0.5"/><path d="M414.94,74.05q0-8.3,8-27.8h-5.2a.64.64,0,0,1-.65-.55,1.56,1.56,0,0,1,.1-1.1.8.8,0,0,1,.75-.55h6a147.07,147.07,0,0,1,6.7-13.2q3.11-5.3,5.7-7.15c1.73-1.23,3-1.85,3.75-1.85a4.91,4.91,0,0,1,1.65.2q2.29,1.1,2.3,4.55a20.5,20.5,0,0,1-2.3,8.35q-2.3,4.9-4.5,9.1H442a.64.64,0,0,1,.65.55,1.56,1.56,0,0,1-.1,1.1.8.8,0,0,1-.75.55H436a72.72,72.72,0,0,1-13.3,16.5L420.44,73a11.36,11.36,0,0,0-.3,2.55,5.34,5.34,0,0,0,.7,2.55,2.33,2.33,0,0,0,2.2,1.3,7.83,7.83,0,0,0,3.8-1.2q4.8-3.6,10.6-15.1a1.87,1.87,0,0,1,.95-1.1c.37-.13.58-.05.65.25a2.75,2.75,0,0,1-.3,1.45,92.1,92.1,0,0,1-5.2,9.8q-5.4,8.7-11.5,8.7a6.46,6.46,0,0,1-5.1-2.3A8.54,8.54,0,0,1,414.94,74.05Zm18.8-27.8H429q-1.2,2.8-5.4,13.3A76.26,76.26,0,0,0,433.74,46.25Zm1.3-2.2q6.6-11.8,6.6-16.4c0-1.33-.23-2-.7-2q-1.1,0-3.35,3.2T430,44.05Z" stroke="#000" stroke-miterlimit="10" stroke-width="0.5"/><path d="M441.84,66.65a19.86,19.86,0,0,0-1.4,7.6,7.21,7.21,0,0,0,1.25,4.45,4.19,4.19,0,0,0,3.55,1.65q9.11,0,16.5-17.1c.47-1.07,1-1.53,1.7-1.4a.47.47,0,0,1,.4.5,41.52,41.52,0,0,1-2.25,5.25A42.49,42.49,0,0,1,457,75.45q-5.1,7-12.6,7a9.65,9.65,0,0,1-6.8-2.6,9.2,9.2,0,0,1-2.8-7.1A24.49,24.49,0,0,1,437,63.2a36.33,36.33,0,0,1,5.85-9.4,22.45,22.45,0,0,1,8.5-6.35,11,11,0,0,1,4.4-1,6.89,6.89,0,0,1,3.9,1.2,4,4,0,0,1,1.7,3.1q0,6-7.2,11.5a21.52,21.52,0,0,1-6.2,3A21,21,0,0,1,441.84,66.65Zm16.8-16c0-1.33-.53-2-1.6-2q-2.81,0-8.5,6.9a51,51,0,0,0-6,9.4,15.84,15.84,0,0,0,4.95-1.2,19.06,19.06,0,0,0,5.65-3.2Q458.65,55.86,458.64,50.65Z" stroke="#000" stroke-miterlimit="10" stroke-width="0.5"/><path d="M445.84,113.05a8.2,8.2,0,0,1-6.55-2.6,8.1,8.1,0,0,1-2.25-5.3,9.32,9.32,0,0,1,1.65-5.2,17.45,17.45,0,0,1,4.1-4.35,38.25,38.25,0,0,1,4.75-3.1A52.27,52.27,0,0,1,454,89.7q4.14-1.55,6.45-2.3t7.2-2.25l6.5-2a32.73,32.73,0,0,0,1.8-8.8q0-5.2-2.9-5.2a3.08,3.08,0,0,0-.8.1q-4.8,2.5-5.7,1.8a1,1,0,0,1-.4-1c.06-.4.36-.67.9-.8a20.53,20.53,0,0,0,11.2-8.8,7,7,0,0,0,1.3-3.7,5,5,0,0,0-1.4-3.3,4,4,0,0,0-3-1.6q-5,0-8.3,5.7-2.8,4.7-5.3,10c-.4.93-.84,1.25-1.3,1s-.44-1,.1-2q5.3-10.39,5.9-11.4,4.5-8.2,12.3-8.2a6,6,0,0,1,5.3,2.6,7.18,7.18,0,0,1,1,4.15c0,1.83-.89,4.07-2.65,6.7A22.24,22.24,0,0,1,475,67h.2q6.5,0,6.7,6.5a24.31,24.31,0,0,1-1.1,7.3q7.59-1.5,15.4-17.9c.26-.6.6-.93,1-1s.7,0,.7.6-.87,2.67-2.6,5.8a72.84,72.84,0,0,1-4.9,7.8q-4.2,6-10.2,7.2a49.61,49.61,0,0,1-11.55,18.35,42.15,42.15,0,0,1-18.25,10.75A17,17,0,0,1,445.84,113.05Zm-4.7-9.9a12.86,12.86,0,0,0-.6,3.9A3.13,3.13,0,0,0,442,110a5.49,5.49,0,0,0,2.8.9q4.8,0,10.55-3.65A47.36,47.36,0,0,0,465.94,98a40.59,40.59,0,0,0,7.3-12.3c-1.4.47-3.6,1.13-6.6,2s-5.37,1.57-7.1,2.1a55.28,55.28,0,0,0-11.1,4.6A15.58,15.58,0,0,0,441.14,103.15Z" stroke="#000" stroke-miterlimit="10" stroke-width="0.5"/></svg>