<?xml version="1.0" encoding="UTF-8"?>
<svg version="1.1" xmlns="http://www.w3.org/2000/svg" width="200" height="200">
<path d="M0 0 C66 0 132 0 200 0 C200 66 200 132 200 200 C134 200 68 200 0 200 C0 134 0 68 0 0 Z " fill="#000000" transform="translate(0,0)"/>
<path d="M0 0 C0.79622772 0.00141495 1.59245544 0.0028299 2.41281128 0.00428772 C4.9601413 0.0098928 7.50738397 0.02244611 10.0546875 0.03515625 C11.77994665 0.0401706 13.50520717 0.04473362 15.23046875 0.04882812 C19.46360254 0.05901372 23.69654704 0.07858805 27.9296875 0.09765625 C27.9296875 10.65765625 27.9296875 21.21765625 27.9296875 32.09765625 C22.63744141 32.15373047 22.63744141 32.15373047 17.23828125 32.2109375 C13.80942699 32.25718993 10.38068028 32.30841021 6.9519043 32.36010742 C4.57469251 32.3932974 2.19740304 32.42134766 -0.17993164 32.4440918 C-3.60336308 32.47774611 -7.02608646 32.53006926 -10.44921875 32.5859375 C-12.0355587 32.59552238 -12.0355587 32.59552238 -13.65394592 32.6053009 C-20.16596505 32.73413528 -25.71740604 33.14318935 -30.8125 37.6328125 C-33.95068498 41.86395156 -35.1889596 43.96466711 -35.27563477 49.18994141 C-35.29557999 50.2508902 -35.31552521 51.31183899 -35.33607483 52.40493774 C-35.35278732 53.55392548 -35.36949982 54.70291321 -35.38671875 55.88671875 C-35.40749985 57.06027924 -35.42828094 58.23383972 -35.44969177 59.44296265 C-35.51523233 63.20279929 -35.57409326 66.96270747 -35.6328125 70.72265625 C-35.67599342 73.26693457 -35.71960757 75.81120558 -35.76367188 78.35546875 C-35.87173589 84.60279224 -35.97077624 90.8501677 -36.0703125 97.09765625 C-46.9603125 97.09765625 -57.8503125 97.09765625 -69.0703125 97.09765625 C-69.23181011 92.11430146 -69.37084113 87.14014589 -69.45483398 82.15625 C-69.48986293 80.46452962 -69.53750394 78.77301851 -69.59838867 77.08203125 C-69.68410357 74.63879661 -69.72317065 72.19837898 -69.75390625 69.75390625 C-69.79003525 69.00774048 -69.82616425 68.26157471 -69.86338806 67.49279785 C-69.86745209 61.95735845 -68.15229326 59.24672242 -64.34501648 55.32357788 C-63.59436417 54.58902374 -62.84371185 53.8544696 -62.0703125 53.09765625 C-60.7200832 51.71397287 -59.36986325 50.33028036 -58.01980782 48.94642735 C-55.39388505 46.26983668 -52.73613304 43.62515915 -50.08203125 40.9765625 C-48.9308285 39.8246849 -47.77977413 38.672659 -46.62886047 37.52049255 C-44.23262695 35.12279412 -41.83461745 32.72689043 -39.43530273 30.33227539 C-36.35731934 27.26002743 -33.28389964 24.18325905 -30.21176434 21.10516453 C-27.84331908 18.73311392 -25.47250757 16.36343995 -23.10096169 13.99448967 C-21.96589542 12.86009075 -20.83157225 11.7249478 -19.69800377 10.5890522 C-18.12097721 9.0094954 -16.54079738 7.43316343 -14.9597168 5.85766602 C-14.06149704 4.96024185 -13.16327728 4.06281769 -12.23783875 3.13819885 C-8.38659861 -0.48741795 -5.04149023 -0.03348275 0 0 Z " fill="#F9F9F9" transform="translate(100.0703125,31.90234375)"/>
<path d="M0 0 C10.89 0 21.78 0 33 0 C33.11523676 4.85786948 33.21462174 9.7109408 33.2746582 14.5690918 C33.29969835 16.21899541 33.33374134 17.86878924 33.37719727 19.51831055 C33.43831952 21.89920212 33.46631294 24.27861931 33.48828125 26.66015625 C33.51408768 27.38960953 33.5398941 28.11906281 33.56648254 28.87062073 C33.56952021 34.50265237 31.79149423 37.87380657 28 42 C26.36643049 43.37368345 24.7074998 44.71937515 23 46 C22.505 46.99 22.505 46.99 22 48 C21.34 48 20.68 48 20 48 C20 48.66 20 49.32 20 50 C18.34997172 51.35386936 16.6825613 52.68678142 15 54 C14.505 54.99 14.505 54.99 14 56 C13.34 56 12.68 56 12 56 C12 56.66 12 57.32 12 58 C10.34997172 59.35386936 8.6825613 60.68678142 7 62 C6.505 62.99 6.505 62.99 6 64 C5.34 64 4.68 64 4 64 C4 64.66 4 65.32 4 66 C2.34997172 67.35386936 0.6825613 68.68678142 -1 70 C-1.33 70.66 -1.66 71.32 -2 72 C-2.66 72 -3.32 72 -4 72 C-4 72.66 -4 73.32 -4 74 C-5.65002828 75.35386936 -7.3174387 76.68678142 -9 78 C-9.33 78.66 -9.66 79.32 -10 80 C-10.66 80 -11.32 80 -12 80 C-12 80.66 -12 81.32 -12 82 C-13.65002828 83.35386936 -15.3174387 84.68678142 -17 86 C-17.33 86.66 -17.66 87.32 -18 88 C-18.66 88 -19.32 88 -20 88 C-20 88.66 -20 89.32 -20 90 C-22.10885466 93.28174119 -24.54602921 95.21625114 -28 97 C-34.0562854 98.18029535 -40.37075247 97.65818622 -46.5 97.4375 C-48.19785239 97.40234409 -49.89577479 97.3704126 -51.59375 97.34179688 C-55.73231753 97.2710694 -59.86107885 97.1341317 -64 97 C-64 86.44 -64 75.88 -64 65 C-58.86824219 64.97873047 -58.86824219 64.97873047 -53.6328125 64.95703125 C-50.29319626 64.92635512 -46.95377549 64.88728061 -43.61425781 64.84741211 C-41.30606068 64.82431722 -38.99775944 64.80985653 -36.68945312 64.80444336 C-33.35741937 64.7950918 -30.02700407 64.75396331 -26.6953125 64.70703125 C-25.67511017 64.7109639 -24.65490784 64.71489655 -23.60379028 64.71894836 C-15.96858565 64.56594933 -9.12833689 63.06270019 -3.51242065 57.53607178 C0.07766118 52.32759783 -0.39741076 46.02392472 -0.390625 39.94140625 C-0.37408875 38.79711655 -0.35755249 37.65282684 -0.34051514 36.47386169 C-0.29212114 32.83668605 -0.27068224 29.1999283 -0.25 25.5625 C-0.22183329 23.08917178 -0.19190489 20.61586296 -0.16015625 18.14257812 C-0.08306358 12.0948614 -0.04246019 6.04845475 0 0 Z " fill="#FAFAFA" transform="translate(136,72)"/>
</svg>
