<svg id="Layer_1" data-name="Layer 1" xmlns="http://www.w3.org/2000/svg" viewBox="0 0 419.39 466.88"><defs><style>.cls-1{fill:#e9121f;}.cls-2{fill:#ef4d57;}</style></defs><title>scotia</title><path class="cls-1" d="M86.88,621.12a43,43,0,0,0,3.84-4.24q15.6-17.25,31.17-34.52,19.54-21.69,39-43.4a11.18,11.18,0,0,1,9.14-4c8.43.17,16.87.12,25.31.17q13,.07,26,.15c11.44.06,22.87.15,34.31.15,9,0,18.07-.07,27.1-.25,7.47-.15,14.94-.16,22.4-.66,30.67-2.06,58.62-11.41,82.7-31,13.72-11.18,24.78-24.63,34-39.66,6.95-11.32,12.57-23.2,15.92-36.11a164.52,164.52,0,0,0,3.51-17.6c.2-1.42.57-2.8.93-4.54l.79,1.34a130.46,130.46,0,0,1,13.84,36.43,140.66,140.66,0,0,1,3.67,31.47q.11,54.22-34.78,95.72c-20.35,24.15-46.13,39.8-76.76,47.41a140.88,140.88,0,0,1-34.17,4.17q-111.34,0-222.7,0c-.88,0-1.76,0-2.63.07a3.56,3.56,0,0,1-2.68-.79Z" transform="translate(-86.88 -155.28)"/><path class="cls-2" d="M275.23,155.49a1.6,1.6,0,0,0,0-.21H505.92a.33.33,0,0,1,.06.19,1.43,1.43,0,0,1-1.19.43c-.44,0-.88,0-1.32,0H277.76C276.91,155.91,276,156.16,275.23,155.49Z" transform="translate(-86.88 -155.28)"/><path class="cls-1" d="M296.75,271.2a117.54,117.54,0,1,1-1.3,235.07c-64.48-.53-117.15-54-116.23-118.56C180.12,323.75,231.43,271.23,296.75,271.2Z" transform="translate(-86.88 -155.28)"/><path class="cls-1" d="M275.23,155.49l3.72,0H505.39a5.61,5.61,0,0,0,.59-.06,1.45,1.45,0,0,1-.31,2c-9.23,9.86-18.13,20-27.2,30-10,11-20,22.14-29.93,33.22-5.21,5.79-10.48,11.53-15.59,17.42a12,12,0,0,1-9.74,4.39q-54.36-.15-108.71-.13c-8.15,0-16.31-.15-24.46.32a160.2,160.2,0,0,0-36.17,6.13A137.88,137.88,0,0,0,197,282a152.51,152.51,0,0,0-30.52,40,137.24,137.24,0,0,0-12.58,35.78c-.73,3.52-1.36,7.05-1.78,10.62a6.46,6.46,0,0,1-.2,1.18c-.19.57-.42,1.33-1,1.43s-.7-.72-.95-1.16a136.29,136.29,0,0,1-15.13-45.65,148.77,148.77,0,0,1-1.57-28,145.87,145.87,0,0,1,78.26-124,148.08,148.08,0,0,1,44.64-14.92A124.45,124.45,0,0,1,275.23,155.49Z" transform="translate(-86.88 -155.28)"/></svg>